<svg xmlns="http://www.w3.org/2000/svg" xmlns:xlink="http://www.w3.org/1999/xlink" viewBox="0 0 1534.55 959.83"><defs><style>.cls-1{fill:url(#linear-gradient);}.cls-2{fill:url(#linear-gradient-2);}.cls-3{fill:url(#linear-gradient-3);}.cls-4{fill:url(#linear-gradient-4);}.cls-5{fill:url(#linear-gradient-5);}.cls-6{fill:url(#linear-gradient-6);}.cls-7{fill:url(#linear-gradient-7);}.cls-8{fill:url(#linear-gradient-8);}.cls-9{fill:url(#linear-gradient-9);}.cls-10{fill:url(#linear-gradient-10);}.cls-11{fill:url(#linear-gradient-11);}.cls-12{fill:url(#linear-gradient-12);}.cls-13{fill:url(#linear-gradient-13);}.cls-14{fill:url(#linear-gradient-14);}.cls-15{fill:url(#linear-gradient-15);}.cls-16{fill:url(#linear-gradient-16);}.cls-17{fill:url(#linear-gradient-17);}.cls-18{fill:url(#linear-gradient-18);}.cls-19{fill:url(#linear-gradient-19);}.cls-20{fill:url(#linear-gradient-20);}.cls-21{fill:url(#linear-gradient-21);}.cls-22{fill:url(#linear-gradient-22);}.cls-23{fill:url(#linear-gradient-23);}.cls-24{fill:url(#linear-gradient-24);}.cls-25{fill:url(#linear-gradient-25);}.cls-26{fill:url(#linear-gradient-26);}.cls-27{fill:url(#linear-gradient-27);}.cls-28{fill:url(#linear-gradient-28);}.cls-29{fill:url(#linear-gradient-29);}.cls-30{fill:url(#linear-gradient-30);}.cls-31{fill:url(#linear-gradient-31);}.cls-32{fill:url(#linear-gradient-32);}.cls-33{fill:url(#linear-gradient-33);}.cls-34{fill:url(#linear-gradient-34);}.cls-35{fill:url(#linear-gradient-35);}.cls-36{fill:url(#linear-gradient-36);}.cls-37{fill:url(#linear-gradient-37);}.cls-38{fill:url(#linear-gradient-38);}.cls-39{fill:url(#linear-gradient-39);}.cls-40{fill:url(#linear-gradient-40);}.cls-41{fill:url(#linear-gradient-41);}.cls-42{fill:url(#linear-gradient-42);}.cls-43{fill:url(#linear-gradient-43);}.cls-44{fill:url(#linear-gradient-44);}.cls-45{fill:url(#linear-gradient-45);}.cls-46{fill:url(#linear-gradient-46);}.cls-47{fill:url(#linear-gradient-47);}.cls-48{fill:url(#linear-gradient-48);}.cls-49{fill:url(#linear-gradient-49);}.cls-50{fill:url(#linear-gradient-50);}.cls-51{fill:url(#linear-gradient-51);}.cls-52{fill:url(#linear-gradient-52);}.cls-53{fill:url(#linear-gradient-53);}.cls-54{fill:url(#linear-gradient-54);}.cls-55{fill:url(#linear-gradient-55);}.cls-56{fill:url(#linear-gradient-56);}.cls-57{fill:url(#linear-gradient-57);}.cls-58{fill:url(#linear-gradient-58);}.cls-59{fill:url(#linear-gradient-59);}.cls-60{fill:url(#linear-gradient-60);}.cls-61{fill:url(#linear-gradient-61);}.cls-62{fill:url(#linear-gradient-62);}.cls-63{fill:url(#linear-gradient-63);}.cls-64{fill:url(#linear-gradient-64);}.cls-65{fill:url(#linear-gradient-65);}.cls-66{fill:url(#linear-gradient-66);}.cls-67{fill:url(#linear-gradient-67);}.cls-68{fill:url(#linear-gradient-68);}.cls-69{fill:url(#linear-gradient-69);}.cls-70{fill:url(#linear-gradient-70);}.cls-71{fill:url(#linear-gradient-71);}.cls-72{fill:url(#linear-gradient-72);}.cls-73{fill:url(#linear-gradient-73);}.cls-74{fill:url(#linear-gradient-74);}.cls-75{fill:url(#linear-gradient-75);}.cls-76{fill:url(#linear-gradient-76);}.cls-77{fill:url(#linear-gradient-77);}.cls-78{fill:url(#linear-gradient-78);}.cls-79{fill:url(#linear-gradient-79);}.cls-80{fill:url(#linear-gradient-80);}.cls-81{fill:url(#linear-gradient-81);}.cls-82{fill:url(#linear-gradient-82);}.cls-83{fill:url(#linear-gradient-83);}.cls-84{fill:url(#linear-gradient-84);}.cls-85{fill:url(#linear-gradient-85);}.cls-86{fill:url(#linear-gradient-86);}.cls-87{fill:url(#linear-gradient-87);}.cls-88{fill:url(#linear-gradient-88);}.cls-89{fill:url(#linear-gradient-89);}.cls-90{fill:url(#linear-gradient-90);}.cls-91{fill:url(#linear-gradient-91);}.cls-92{fill:url(#linear-gradient-92);}</style><linearGradient id="linear-gradient" x1="775.41" y1="869.8" x2="766.64" y2="1.4" gradientUnits="userSpaceOnUse"><stop offset="0" stop-color="#34a2d3"/><stop offset="0.58" stop-color="#7bcdf1"/><stop offset="0.89" stop-color="#9de1ff"/><stop offset="0.9" stop-color="#ace5ff"/><stop offset="0.95" stop-color="#d6f2ff"/><stop offset="0.98" stop-color="#f0faff"/><stop offset="1" stop-color="#fafdff"/></linearGradient><linearGradient id="linear-gradient-2" x1="-858.27" y1="727.75" x2="-900.58" y2="473.9" gradientTransform="matrix(1, 0, 0, -1, 2010.32, 943.89)" gradientUnits="userSpaceOnUse"><stop offset="0" stop-color="#1f9ed6"/><stop offset="1" stop-color="#74d2fc"/></linearGradient><linearGradient id="linear-gradient-3" x1="-618.92" y1="940.96" x2="-662.25" y2="681.01" xlink:href="#linear-gradient-2"/><linearGradient id="linear-gradient-4" x1="-755.65" y1="681.25" x2="-808.25" y2="365.59" xlink:href="#linear-gradient-2"/><linearGradient id="linear-gradient-5" x1="-753.51" y1="941.76" x2="-758.22" y2="431.45" gradientTransform="matrix(1, 0, 0, -1, 2010.32, 943.89)" gradientUnits="userSpaceOnUse"><stop offset="0" stop-color="#0d8cc4"/><stop offset="1" stop-color="#7ecbee"/></linearGradient><linearGradient id="linear-gradient-6" x1="-672.19" y1="579.39" x2="-678.17" y2="466.04" xlink:href="#linear-gradient-2"/><linearGradient id="linear-gradient-7" x1="-785.46" y1="1019.56" x2="-808.58" y2="157.32" gradientTransform="matrix(1, 0, 0, -1, 2010.32, 943.89)" gradientUnits="userSpaceOnUse"><stop offset="0.33" stop-color="#74d4ff"/><stop offset="1" stop-color="#005e9b"/></linearGradient><linearGradient id="linear-gradient-8" x1="-909.31" y1="687.26" x2="-1067.58" y2="434.97" xlink:href="#linear-gradient-2"/><linearGradient id="linear-gradient-9" x1="-903.17" y1="623.37" x2="-921.98" y2="326.03" xlink:href="#linear-gradient-2"/><linearGradient id="linear-gradient-10" x1="-956.55" y1="683.26" x2="-929.82" y2="346.77" xlink:href="#linear-gradient-7"/><linearGradient id="linear-gradient-11" x1="-1014.63" y1="952.11" x2="-1030.68" y2="354" gradientTransform="matrix(-0.98, -0.22, -0.22, 0.98, 279.47, -698.44)" gradientUnits="userSpaceOnUse"><stop offset="0" stop-color="#74d4ff"/><stop offset="1" stop-color="#fafdff"/></linearGradient><linearGradient id="linear-gradient-12" x1="-605" y1="793.55" x2="-539.3" y2="544.44" xlink:href="#linear-gradient-2"/><linearGradient id="linear-gradient-13" x1="-1422.63" y1="682.8" x2="-1467.79" y2="443.88" xlink:href="#linear-gradient-5"/><linearGradient id="linear-gradient-14" x1="-1464" y1="652.89" x2="-1477.99" y2="578.87" xlink:href="#linear-gradient-5"/><linearGradient id="linear-gradient-15" x1="-1276.68" y1="691.75" x2="-1296.51" y2="586.83" xlink:href="#linear-gradient-5"/><linearGradient id="linear-gradient-16" x1="-1331.7" y1="642.91" x2="-1358.11" y2="503.21" xlink:href="#linear-gradient-2"/><linearGradient id="linear-gradient-17" x1="-923.8" y1="850.48" x2="-957.47" y2="672.32" xlink:href="#linear-gradient-2"/><linearGradient id="linear-gradient-18" x1="-1315.39" y1="536.41" x2="-1359.82" y2="205.72" gradientTransform="matrix(1, 0, 0, -1, 2010.32, 943.89)" gradientUnits="userSpaceOnUse"><stop offset="0" stop-color="#74d4ff"/><stop offset="1" stop-color="#00669b"/></linearGradient><linearGradient id="linear-gradient-19" x1="-1443.45" y1="593.56" x2="-1479.99" y2="321.61" xlink:href="#linear-gradient-18"/><linearGradient id="linear-gradient-20" x1="-1225.83" y1="740.22" x2="-1249.14" y2="367.29" xlink:href="#linear-gradient-2"/><linearGradient id="linear-gradient-21" x1="-1403.74" y1="775.9" x2="-1411.94" y2="644.73" xlink:href="#linear-gradient-2"/><linearGradient id="linear-gradient-22" x1="-1203.12" y1="827.47" x2="-1227.68" y2="434.53" xlink:href="#linear-gradient-5"/><linearGradient id="linear-gradient-23" x1="-1317.12" y1="707.12" x2="-1126.52" y2="361.59" gradientTransform="matrix(1, 0, 0, -1, 2010.32, 943.89)" xlink:href="#linear-gradient"/><linearGradient id="linear-gradient-24" x1="-1364.01" y1="584.44" x2="-1358.72" y2="447.53" xlink:href="#linear-gradient-5"/><linearGradient id="linear-gradient-25" x1="-1197.63" y1="415.61" x2="-1243.92" y2="71.13" xlink:href="#linear-gradient-18"/><linearGradient id="linear-gradient-26" x1="-1053.3" y1="404.76" x2="-1103.09" y2="34.14" xlink:href="#linear-gradient-18"/><linearGradient id="linear-gradient-27" x1="-919.54" y1="376.42" x2="-949.28" y2="155.06" gradientTransform="matrix(1, 0, 0, -1, 2010.32, 943.89)" gradientUnits="userSpaceOnUse"><stop offset="0" stop-color="#74d4ff"/><stop offset="1" stop-color="#005e9b"/></linearGradient><linearGradient id="linear-gradient-28" x1="-1106.19" y1="519.59" x2="-1136.93" y2="290.82" xlink:href="#linear-gradient-18"/><linearGradient id="linear-gradient-29" x1="-1087.6" y1="785.61" x2="-1115.81" y2="466.73" xlink:href="#linear-gradient-5"/><linearGradient id="linear-gradient-30" x1="-1097.73" y1="671.05" x2="-1104.44" y2="595.21" xlink:href="#linear-gradient-5"/><linearGradient id="linear-gradient-31" x1="-969.15" y1="559.41" x2="-1024.98" y2="361.38" xlink:href="#linear-gradient-5"/><linearGradient id="linear-gradient-32" x1="-880.14" y1="463.07" x2="-918.34" y2="309.11" xlink:href="#linear-gradient-2"/><linearGradient id="linear-gradient-33" x1="-1150.15" y1="533.12" x2="-1203" y2="320.1" xlink:href="#linear-gradient-5"/><linearGradient id="linear-gradient-34" x1="-1381.09" y1="629.43" x2="-1274.15" y2="282.15" xlink:href="#linear-gradient-18"/><linearGradient id="linear-gradient-35" x1="-1045.13" y1="564.31" x2="-1148.55" y2="134.95" gradientTransform="matrix(1, 0, 0, -1, 2010.32, 943.89)" gradientUnits="userSpaceOnUse"><stop offset="0" stop-color="#74d2fc"/><stop offset="1" stop-color="#1f9ed6" stop-opacity="0.1"/></linearGradient><linearGradient id="linear-gradient-36" x1="-976.33" y1="504.48" x2="-1057.42" y2="294.69" xlink:href="#linear-gradient-2"/><linearGradient id="linear-gradient-37" x1="-793.74" y1="499.47" x2="-889.86" y2="250.83" xlink:href="#linear-gradient-5"/><linearGradient id="linear-gradient-38" x1="-1175.44" y1="409.35" x2="-1198.16" y2="261.27" xlink:href="#linear-gradient-2"/><linearGradient id="linear-gradient-39" x1="930.52" y1="313.62" x2="935.47" y2="157.89" gradientTransform="matrix(1, 0, 0, 1, 0, 0)" xlink:href="#linear-gradient-2"/><linearGradient id="linear-gradient-40" x1="-1244.45" y1="895.81" x2="-1161.1" y2="579.78" xlink:href="#linear-gradient-2"/><linearGradient id="linear-gradient-41" x1="-1329.65" y1="872.71" x2="-1346.14" y2="686.29" xlink:href="#linear-gradient-5"/><linearGradient id="linear-gradient-42" x1="851.43" y1="152.66" x2="860.84" y2="-2.71" gradientTransform="matrix(1, 0, 0, 1, 0, 0)" xlink:href="#linear-gradient-11"/><linearGradient id="linear-gradient-43" x1="903.32" y1="182.07" x2="914.46" y2="-1.94" gradientTransform="matrix(1, 0, 0, 1, 0, 0)" xlink:href="#linear-gradient-11"/><linearGradient id="linear-gradient-44" x1="1356.09" y1="355.58" x2="1329.5" y2="184.52" gradientTransform="matrix(1, 0, 0, 1, 0, 0)" xlink:href="#linear-gradient-2"/><linearGradient id="linear-gradient-45" x1="882.67" y1="204.11" x2="876.48" y2="94.3" gradientTransform="matrix(1, 0, 0, 1, 0, 0)" xlink:href="#linear-gradient-5"/><linearGradient id="linear-gradient-46" x1="887.81" y1="221.84" x2="891.23" y2="114.44" gradientTransform="matrix(1, 0, 0, 1, 0, 0)" xlink:href="#linear-gradient-2"/><linearGradient id="linear-gradient-47" x1="568.6" y1="294.38" x2="572.42" y2="174.19" gradientTransform="matrix(1, 0, 0, 1, 0, 0)" xlink:href="#linear-gradient-2"/><linearGradient id="linear-gradient-48" x1="-1579.33" y1="825" x2="-1604.16" y2="676.06" xlink:href="#linear-gradient-2"/><linearGradient id="linear-gradient-49" x1="-1511.78" y1="796.49" x2="-1542.64" y2="611.3" xlink:href="#linear-gradient-2"/><linearGradient id="linear-gradient-50" x1="-1526.66" y1="1021.49" x2="-1530.21" y2="635.69" xlink:href="#linear-gradient-5"/><linearGradient id="linear-gradient-51" x1="-1469.47" y1="741.25" x2="-1473.15" y2="671.61" xlink:href="#linear-gradient-2"/><linearGradient id="linear-gradient-52" x1="-1568.76" y1="903" x2="-1578.41" y2="543.08" gradientTransform="matrix(1, 0, 0, -1, 2010.32, 943.89)" xlink:href="#linear-gradient-11"/><linearGradient id="linear-gradient-53" x1="-1609.28" y1="801.24" x2="-1702.13" y2="653.23" xlink:href="#linear-gradient-2"/><linearGradient id="linear-gradient-54" x1="-1605.68" y1="763.76" x2="-1616.71" y2="589.32" xlink:href="#linear-gradient-2"/><linearGradient id="linear-gradient-55" x1="-1636.99" y1="798.89" x2="-1621.31" y2="601.48" gradientTransform="matrix(1, 0, 0, -1, 2010.32, 943.89)" xlink:href="#linear-gradient-11"/><linearGradient id="linear-gradient-56" x1="-1807.84" y1="800.48" x2="-1810.19" y2="712.58" gradientTransform="matrix(1, 0, 0, -1, 2010.32, 943.89)" xlink:href="#linear-gradient-11"/><linearGradient id="linear-gradient-57" x1="-1910.44" y1="798.62" x2="-1936.93" y2="658.46" xlink:href="#linear-gradient-5"/><linearGradient id="linear-gradient-58" x1="-1934.71" y1="781.07" x2="-1942.91" y2="737.65" xlink:href="#linear-gradient-5"/><linearGradient id="linear-gradient-59" x1="-1827.6" y1="789.09" x2="-1837.07" y2="739.02" xlink:href="#linear-gradient-5"/><linearGradient id="linear-gradient-60" x1="-1857.09" y1="775.22" x2="-1872.58" y2="693.26" xlink:href="#linear-gradient-2"/><linearGradient id="linear-gradient-61" x1="-1847.52" y1="712.74" x2="-1873.58" y2="518.73" xlink:href="#linear-gradient-18"/><linearGradient id="linear-gradient-62" x1="-1922.65" y1="746.27" x2="-1944.09" y2="586.72" xlink:href="#linear-gradient-18"/><linearGradient id="linear-gradient-63" x1="-1794.98" y1="832.31" x2="-1808.65" y2="613.52" xlink:href="#linear-gradient-2"/><linearGradient id="linear-gradient-64" x1="-1781.65" y1="883.5" x2="-1796.06" y2="652.97" xlink:href="#linear-gradient-5"/><linearGradient id="linear-gradient-65" x1="-1848.53" y1="812.89" x2="-1736.71" y2="610.17" gradientTransform="matrix(1, 0, 0, -1, 2010.32, 943.89)" xlink:href="#linear-gradient-11"/><linearGradient id="linear-gradient-66" x1="-1876.04" y1="740.92" x2="-1872.94" y2="660.59" xlink:href="#linear-gradient-5"/><linearGradient id="linear-gradient-67" x1="-1778.43" y1="641.87" x2="-1805.59" y2="439.77" xlink:href="#linear-gradient-18"/><linearGradient id="linear-gradient-68" x1="-1693.75" y1="635.5" x2="-1722.97" y2="418.07" xlink:href="#linear-gradient-18"/><linearGradient id="linear-gradient-69" x1="-1615.28" y1="618.88" x2="-1632.73" y2="489.01" xlink:href="#linear-gradient-18"/><linearGradient id="linear-gradient-70" x1="-1724.78" y1="702.88" x2="-1742.82" y2="568.66" xlink:href="#linear-gradient-18"/><linearGradient id="linear-gradient-71" x1="-1713.88" y1="858.94" x2="-1730.43" y2="671.86" xlink:href="#linear-gradient-5"/><linearGradient id="linear-gradient-72" x1="-1719.82" y1="791.73" x2="-1723.76" y2="747.24" xlink:href="#linear-gradient-5"/><linearGradient id="linear-gradient-73" x1="-1644.39" y1="726.23" x2="-1677.14" y2="610.05" xlink:href="#linear-gradient-5"/><linearGradient id="linear-gradient-74" x1="-1592.17" y1="669.71" x2="-1614.57" y2="579.39" xlink:href="#linear-gradient-2"/><linearGradient id="linear-gradient-75" x1="-1750.57" y1="710.81" x2="-1781.58" y2="585.84" xlink:href="#linear-gradient-5"/><linearGradient id="linear-gradient-76" x1="-1886.07" y1="767.32" x2="-1823.32" y2="563.57" gradientTransform="matrix(1, 0, 0, -1, 2010.32, 943.89)" xlink:href="#linear-gradient-11"/><linearGradient id="linear-gradient-77" x1="-1688.96" y1="729.11" x2="-1749.64" y2="477.21" xlink:href="#linear-gradient-35"/><linearGradient id="linear-gradient-78" x1="-1648.6" y1="694.01" x2="-1696.17" y2="570.93" xlink:href="#linear-gradient-2"/><linearGradient id="linear-gradient-79" x1="-1541.48" y1="691.07" x2="-1597.86" y2="545.19" xlink:href="#linear-gradient-5"/><linearGradient id="linear-gradient-80" x1="-1765.41" y1="638.2" x2="-1778.74" y2="551.32" xlink:href="#linear-gradient-2"/><linearGradient id="linear-gradient-81" x1="-1945.08" y1="874.11" x2="-1964.53" y2="771.2" xlink:href="#linear-gradient-2"/><linearGradient id="linear-gradient-82" x1="-1879.97" y1="987.99" x2="-1904.02" y2="860.78" gradientTransform="matrix(1, 0, 0, -1, 2010.32, 943.89)" gradientUnits="userSpaceOnUse"><stop offset="0" stop-color="#faffff"/><stop offset="1" stop-color="#74d4ff" stop-opacity="0"/></linearGradient><linearGradient id="linear-gradient-83" x1="-1548.45" y1="1001.76" x2="-1579.43" y2="837.88" xlink:href="#linear-gradient-82"/><linearGradient id="linear-gradient-84" x1="-1374.28" y1="929.67" x2="-1405.44" y2="764.83" xlink:href="#linear-gradient-82"/><linearGradient id="linear-gradient-85" x1="-1242.55" y1="953" x2="-1278.98" y2="681.84" xlink:href="#linear-gradient-7"/><linearGradient id="linear-gradient-86" x1="-1824.82" y1="1004.38" x2="-1859.93" y2="743.09" xlink:href="#linear-gradient-7"/><linearGradient id="linear-gradient-87" x1="-1751.76" y1="894.79" x2="-1770.53" y2="755.14" xlink:href="#linear-gradient-2"/><linearGradient id="linear-gradient-88" x1="1147.45" y1="271.96" x2="1164.04" y2="-2.09" gradientTransform="matrix(1, 0, 0, 1, 0, 0)" xlink:href="#linear-gradient-11"/><linearGradient id="linear-gradient-89" x1="93.19" y1="91.76" x2="81.3" y2="154.64" gradientTransform="matrix(1, 0, 0, 1, 0, 0)" xlink:href="#linear-gradient-5"/><linearGradient id="linear-gradient-90" x1="-1771.63" y1="973.77" x2="-1620.36" y2="699.54" gradientTransform="matrix(1, 0, 0, -1, 2010.32, 943.89)" xlink:href="#linear-gradient-11"/><linearGradient id="linear-gradient-91" x1="-962.47" y1="858.38" x2="-1004.2" y2="637.58" gradientTransform="matrix(-0.94, -0.34, -0.34, 0.94, 299.83, -887.75)" xlink:href="#linear-gradient-82"/><linearGradient id="linear-gradient-92" x1="-470.01" y1="1079.36" x2="-524.65" y2="672.68" gradientTransform="translate(930.64 943.89) rotate(180)" xlink:href="#linear-gradient-7"/></defs><g id="Layer_2" data-name="Layer 2"><g id="Island_Layer" data-name="Island Layer"><path id="Island_Main" data-name="Island Main" class="cls-1" d="M1534.55,49.11l-19.31-21.37s-3.65-1-4.3-1.34l-4-16.16L1455.62,0H78.94L27.6,10.24l-4,16.16c-.64.33-4.29,1.34-4.29,1.34L7.78,55.93,2.71,58.06.23,78.16H0l.16.57L0,80H.51l33,120,28.2,17.09L48.06,321.36,80.54,382l47.86-4.27,18.8,76.92,38.46,29.91,24.79,44.33,52.7,25.28L311,490.32l28.5-22.07L390,454.69l32.64-12.18L449,367.39l25.56-13.77.08.49,48.07,29.14L499.36,561l55.35,103.43,81.58-7.28,32.05,131.11,65.56,51,42.24,75.55L866,957.86,947.45,849,996,811.35l86.18-23.11,55.63-20.77,44.83-128,45.83-24.68,54.06-135.15,75.22-42.31,29.67-73.45,68.17-.12,59.62-99.35,11.53-101,7.78-7.08,0-76.78Z"/><polygon class="cls-2" points="1000.89 485.48 1145.84 529.36 1235.94 414.18 1018.13 318.2 1000.89 485.48"/><polygon class="cls-3" points="1224.93 277.27 1369.88 321.14 1528.31 164.75 1211.28 100.28 1224.93 277.27"/><polygon class="cls-4" points="1182.67 641.4 1145.84 529.36 1235.94 414.18 1282.56 481.56 1169.15 542.68 1182.67 641.4"/><polygon class="cls-5" points="1387.45 365.81 1306.65 421.04 1277.27 360.19 1120.87 212.44 1370.26 318.2 1387.45 365.81"/><polygon class="cls-6" points="1306.65 421.04 1282.56 481.56 1357.78 439.26 1387.45 365.81 1306.65 421.04"/><polygon class="cls-7" points="1282.56 481.56 1289.22 420.88 1261.41 371.48 1120.87 318.2 1120.87 255.05 1277.27 360.19 1306.65 421.04 1282.56 481.56"/><polygon class="cls-8" points="942.91 581.46 1000.89 485.48 887.68 523.87 942.91 581.46"/><polygon class="cls-9" points="1000.89 485.48 1027.53 584.4 1112.15 599.09 1182.67 641.4 1145.84 529.36 1000.89 485.48"/><polygon class="cls-10" points="1018.13 318.2 1038.11 472.16 1145.84 529.36 1000.89 485.48 1018.13 318.2"/><polygon class="cls-11" points="1033.37 123.93 1120.87 212.44 1221.33 255.05 1127.35 72.35 1033.37 123.93"/><polygon class="cls-12" points="1387.45 365.81 1455.62 365.69 1515.24 266.34 1370.26 318.2 1387.45 365.81"/><polygon class="cls-13" points="499.36 562.95 589.68 470.44 600.6 318.2 522.66 385.22 499.36 562.95"/><polygon class="cls-14" points="474.59 356.08 516.16 313.6 600.6 318.2 522.66 385.22 474.59 356.08"/><polygon class="cls-15" points="600.6 318.2 736.08 392.5 841.7 318.2 681.74 266.34 600.6 318.2"/><polygon class="cls-16" points="736.08 392.5 711.32 465.34 589.68 470.44 600.6 318.2 736.08 392.5"/><polygon class="cls-17" points="1120.87 212.44 1120.87 318.2 1019.05 318.2 990 197.56 1032.27 123.93 1120.87 212.44"/><path class="cls-18" d="M636.29,659.09s32.05-115.81,31.32-112.9.73,244,.73,244Z"/><polygon class="cls-19" points="554.71 666.38 589.68 470.44 499.36 562.95 554.71 666.38"/><polygon class="cls-20" points="711.32 465.34 736.08 630.68 818.39 570.23 711.32 465.34"/><polygon class="cls-21" points="516.16 313.6 600.6 318.2 681.74 266.34 589.68 278.68 516.16 313.6"/><polygon class="cls-22" points="736.08 392.5 856.27 516.33 818.39 570.23 711.32 465.34 736.08 392.5"/><polygon class="cls-23" points="798.06 348.9 736.08 392.5 856.27 516.33 798.06 348.9"/><polygon class="cls-24" points="589.68 470.44 652.32 505.16 711.32 465.34 589.68 470.44"/><polygon class="cls-25" points="733.9 841.19 750.4 668.17 779.2 912.04 796.17 736.93 802.3 929.29 776.14 916.74 733.9 841.19"/><polygon class="cls-26" points="865.97 959.83 861.46 685.8 907.3 876.19 935.5 846.23 996.03 813.32 947.45 850.93 865.97 959.83"/><path class="cls-27" d="M996,813.32,991.92,751s50.53-96.37,51.71-94.61,94.21,113,94.21,113l-55.63,20.76Z"/><polygon class="cls-28" points="822.96 582.5 861.46 685.8 942.91 581.46 887.68 523.87 856.27 516.33 822.96 582.5"/><polygon class="cls-29" points="796.17 350.23 1018.13 318.2 985.22 470.44 887.68 523.87 856.27 516.33 796.17 350.23"/><polygon class="cls-30" points="796.17 350.23 841.7 318.2 1018.13 318.2 796.17 350.23"/><polygon class="cls-31" points="942.91 581.46 996.03 649.37 1027.53 584.4 1000.89 485.48 942.91 581.46"/><polygon class="cls-32" points="996.03 649.37 1101.8 619.99 1182.67 641.4 1112.15 599.09 1027.53 584.4 996.03 649.37"/><polygon class="cls-33" points="736.08 630.68 764.85 666.38 861.46 685.8 818.39 570.23 736.08 630.68"/><polygon class="cls-34" points="736.08 630.68 652.32 505.16 711.32 465.34 736.08 630.68"/><polygon class="cls-35" points="861.46 685.8 891.41 810.22 895.55 685.8 942.91 581.46 861.46 685.8"/><polygon class="cls-36" points="895.55 685.8 996.03 649.37 942.91 581.46 895.55 685.8"/><polygon class="cls-37" points="1137.84 769.44 1104.54 685.8 1101.8 619.99 1182.67 641.4 1137.84 769.44"/><polygon class="cls-38" points="764.85 666.38 773.12 711.46 861.46 685.8 764.85 666.38"/><polygon class="cls-39" points="990 197.56 1019.05 318.2 841.7 318.2 905.7 212.97 990 197.56"/><polygon class="cls-40" points="760.95 292.27 841.82 318.08 905.7 212.97 721.15 243.82 760.95 292.27"/><polygon class="cls-41" points="567.57 221.07 649.15 156.96 760.95 292.27 681.74 266.34 589.68 278.68 567.57 221.07"/><polygon class="cls-42" points="896.25 1 836.05 86.88 824.96 1.32 896.25 1"/><polygon class="cls-43" points="896.25 1 896.25 104.84 932.31 1 896.25 1"/><polygon class="cls-44" points="1211.28 100.28 1366.18 257.88 1414.89 57.54 1211.28 100.28"/><polygon class="cls-45" points="835.89 85.71 840.08 143.15 919.25 141.49 896.25 103.24 835.89 85.71"/><polygon class="cls-46" points="919.25 141.49 943.42 206.07 832.6 225.19 840.08 143.15 919.25 141.49"/><polygon class="cls-47" points="551.68 249.79 570.3 203.41 567.57 221.07 589.68 278.68 547.87 299.44 551.68 249.79"/><polygon class="cls-48" points="342.31 276.91 427.34 302.66 480.21 235.09 352.42 178.78 342.31 276.91"/><polygon class="cls-49" points="448.95 368.39 427.34 302.66 480.21 235.09 507.56 274.62 516.16 313.6 469.92 342.13 448.95 368.39"/><polygon class="cls-50" points="570.3 203.41 521.69 239.11 504.45 203.41 392.06 178.78 551.33 82.97 570.3 203.41"/><polygon class="cls-51" points="521.69 239.11 507.56 274.62 551.68 249.79 570.3 203.41 521.69 239.11"/><polygon class="cls-52" points="507.56 274.62 511.46 239.01 495.14 210.03 352.42 178.78 392.06 178.78 504.45 203.41 521.69 239.11 507.56 274.62"/><polygon class="cls-53" points="308.29 333.22 342.31 276.91 275.88 299.44 308.29 333.22"/><polygon class="cls-54" points="342.31 276.91 357.93 334.95 407.58 343.57 448.95 368.39 427.34 302.66 342.31 276.91"/><polygon class="cls-55" points="352.42 178.78 364.14 269.1 427.34 302.66 342.31 276.91 352.42 178.78"/><polygon class="cls-56" points="180.04 199.46 253.36 178.78 149.7 178.78 180.04 199.46"/><polygon class="cls-57" points="48.06 322.36 101.05 268.09 107.46 178.78 61.73 218.09 48.06 322.36"/><polygon class="cls-58" points="33.53 201 107.46 178.78 61.73 218.09 33.53 201"/><polygon class="cls-59" points="107.46 178.78 186.94 222.36 248.91 178.78 107.46 178.78"/><polygon class="cls-60" points="186.94 222.36 172.41 265.1 101.05 268.09 107.46 178.78 186.94 222.36"/><path class="cls-61" d="M128.4,378.77s18.8-67.94,18.37-66.24.43,143.16.43,143.16Z"/><polygon class="cls-62" points="80.54 383.04 101.05 268.09 48.06 322.36 80.54 383.04"/><polygon class="cls-63" points="172.41 265.1 186.94 362.1 235.23 326.63 172.41 265.1"/><polygon class="cls-64" points="186.94 222.36 257.45 295.01 235.23 326.63 172.41 265.1 186.94 222.36"/><polygon class="cls-65" points="223.31 196.78 186.94 222.36 257.45 295.01 223.31 196.78"/><polygon class="cls-66" points="101.05 268.09 137.8 288.46 172.41 265.1 101.05 268.09"/><polygon class="cls-67" points="185.66 485.6 195.34 384.1 212.24 527.17 222.2 424.43 225.79 537.29 210.45 529.93 185.66 485.6"/><polygon class="cls-68" points="263.15 555.21 260.5 394.44 287.39 506.14 303.94 488.56 339.45 469.25 310.95 491.31 263.15 555.21"/><path class="cls-69" d="M339.45,469.25,337,432.71s29.65-56.54,30.34-55.51,55.27,66.31,55.27,66.31L390,455.69Z"/><polygon class="cls-70" points="237.91 333.83 260.5 394.44 308.29 333.22 275.88 299.44 257.45 295.01 237.91 333.83"/><polygon class="cls-71" points="222.2 197.56 352.42 178.78 333.11 268.09 275.88 299.44 257.45 295.01 222.2 197.56"/><polygon class="cls-72" points="222.2 197.56 248.91 178.78 352.42 178.78 222.2 197.56"/><polygon class="cls-73" points="308.29 333.22 339.45 373.06 357.93 334.95 342.31 276.91 308.29 333.22"/><polygon class="cls-74" points="339.45 373.06 401.51 355.83 448.95 368.39 407.58 343.57 357.93 334.95 339.45 373.06"/><polygon class="cls-75" points="186.94 362.1 203.82 383.04 260.5 394.44 235.23 326.63 186.94 362.1"/><polygon class="cls-76" points="186.94 362.1 137.8 288.46 172.41 265.1 186.94 362.1"/><polygon class="cls-77" points="260.5 394.44 278.07 467.43 280.5 394.44 308.29 333.22 260.5 394.44"/><polygon class="cls-78" points="280.5 394.44 339.45 373.06 308.29 333.22 280.5 394.44"/><polygon class="cls-79" points="422.65 443.51 403.12 394.44 401.51 355.83 448.95 368.39 422.65 443.51"/><polygon class="cls-80" points="203.82 383.04 208.68 409.49 260.5 394.44 203.82 383.04"/><polygon class="cls-81" points="48.06 166.42 107.83 178.36 33.53 201 0 81 48.06 166.42"/><polygon class="cls-82" points="78.94 1 214.93 1 194.69 89.7 162.37 14.94 98.87 19.89 12.51 103.24 24.04 25.67 27.6 11.24 78.94 1"/><polygon class="cls-83" points="349.59 1.8 579.15 1.8 551.33 82.97 526.59 15.73 443.39 68.77 432.82 96.18 297.86 129.64 365.77 21.87 349.59 1.8"/><polygon class="cls-84" points="588.05 156.96 658.67 56.22 630.33 121.61 687.82 119.63 649.15 156.96 567.57 221.07 570.3 203.41 551.33 82.97 588.05 156.96"/><polygon class="cls-85" points="649.15 156.96 721.15 243.82 832.6 225.19 759.24 88.57 727.83 81.02 649.15 156.96"/><polygon class="cls-86" points="86.27 104.84 107.46 178.78 230.36 178.78 134.8 136.92 98.87 19.89 86.27 104.84"/><polygon class="cls-87" points="134.8 136.92 230.22 178.78 353.12 178.47 212.2 119.63 194.69 89.7 134.8 136.92"/><polygon class="cls-88" points="1190.8 1 1177.81 13.18 1190.36 17.14 1212.6 80.77 1265.88 157.71 1211.28 100.28 1171.27 157.71 1127.35 72.35 1052.31 1.54 1190.8 1"/><polygon class="cls-89" points="86.27 104.84 107.83 178.36 48.06 166.42 86.27 104.84"/><polygon class="cls-90" points="445.14 146.85 212.2 119.63 353.12 178.47 392.06 178.78 445.14 146.85"/><polygon class="cls-91" points="1009.58 73.32 943.42 206.07 919.25 141.49 910.11 64.92 966.43 0.69 1068.38 1.58 1127.35 72.35 1032.27 123.93 990 197.56 1009.58 73.32"/><polygon class="cls-92" points="1482.85 95.27 1528.31 164.75 1366.18 257.88 1414.4 57.54 1454.78 0.48 1482.85 95.27"/></g></g></svg>