<svg xmlns="http://www.w3.org/2000/svg" xmlns:xlink="http://www.w3.org/1999/xlink" viewBox="0 0 422.88 194.2"><defs><style>.cls-1{isolation:isolate;}.cls-104,.cls-2{mix-blend-mode:multiply;opacity:0.55;}.cls-2{fill:url(#linear-gradient);}.cls-3{fill:url(#linear-gradient-2);}.cls-4{fill:url(#linear-gradient-3);}.cls-5{fill:url(#linear-gradient-4);}.cls-6{fill:url(#linear-gradient-5);}.cls-7{fill:url(#linear-gradient-6);}.cls-8{fill:url(#linear-gradient-7);}.cls-9{fill:url(#linear-gradient-8);}.cls-10{fill:url(#linear-gradient-9);}.cls-11{fill:url(#linear-gradient-10);}.cls-12{fill:url(#linear-gradient-11);}.cls-13{fill:url(#linear-gradient-12);}.cls-14{fill:url(#linear-gradient-13);}.cls-15{fill:url(#linear-gradient-14);}.cls-16{fill:url(#linear-gradient-15);}.cls-17{fill:url(#linear-gradient-16);}.cls-18{fill:url(#linear-gradient-17);}.cls-19{fill:url(#linear-gradient-18);}.cls-20{fill:url(#linear-gradient-19);}.cls-21{fill:url(#linear-gradient-20);}.cls-22{fill:url(#linear-gradient-21);}.cls-23{fill:url(#linear-gradient-22);}.cls-24{fill:url(#linear-gradient-23);}.cls-25{fill:url(#linear-gradient-24);}.cls-26{fill:url(#linear-gradient-25);}.cls-27{fill:url(#linear-gradient-26);}.cls-28{fill:url(#linear-gradient-27);}.cls-29{fill:url(#linear-gradient-28);}.cls-30{fill:url(#linear-gradient-29);}.cls-31{fill:url(#linear-gradient-30);}.cls-32{fill:url(#linear-gradient-31);}.cls-33{fill:url(#linear-gradient-32);}.cls-34{fill:url(#linear-gradient-33);}.cls-35{fill:url(#linear-gradient-34);}.cls-36{fill:url(#linear-gradient-35);}.cls-37{fill:url(#linear-gradient-36);}.cls-38{fill:url(#linear-gradient-37);}.cls-39{fill:url(#linear-gradient-38);}.cls-40{fill:url(#linear-gradient-39);}.cls-41{fill:url(#linear-gradient-40);}.cls-42{fill:url(#linear-gradient-41);}.cls-43{fill:url(#linear-gradient-42);}.cls-44{fill:url(#linear-gradient-43);}.cls-45{fill:url(#linear-gradient-44);}.cls-46{fill:url(#linear-gradient-45);}.cls-47{fill:url(#linear-gradient-46);}.cls-48{fill:url(#linear-gradient-47);}.cls-49{fill:url(#linear-gradient-48);}.cls-50{fill:url(#linear-gradient-49);}.cls-51{fill:url(#linear-gradient-50);}.cls-52{fill:url(#linear-gradient-51);}.cls-53{fill:url(#linear-gradient-52);}.cls-54{fill:url(#linear-gradient-53);}.cls-55{fill:url(#linear-gradient-54);}.cls-56{fill:url(#linear-gradient-55);}.cls-57{fill:url(#linear-gradient-56);}.cls-58{fill:url(#linear-gradient-57);}.cls-59{fill:url(#linear-gradient-58);}.cls-60{fill:url(#linear-gradient-59);}.cls-61{fill:url(#linear-gradient-60);}.cls-62{fill:url(#linear-gradient-61);}.cls-63{fill:url(#linear-gradient-62);}.cls-64{fill:url(#linear-gradient-63);}.cls-65{fill:url(#linear-gradient-64);}.cls-66{fill:url(#linear-gradient-65);}.cls-67{fill:url(#linear-gradient-66);}.cls-68{fill:url(#linear-gradient-67);}.cls-69{fill:url(#linear-gradient-68);}.cls-70{fill:url(#linear-gradient-69);}.cls-71{fill:url(#linear-gradient-70);}.cls-72{fill:url(#linear-gradient-71);}.cls-73{fill:url(#linear-gradient-72);}.cls-74{fill:url(#linear-gradient-73);}.cls-75{fill:url(#linear-gradient-74);}.cls-76{fill:url(#linear-gradient-75);}.cls-77{fill:url(#linear-gradient-76);}.cls-78{fill:url(#linear-gradient-77);}.cls-79{fill:url(#linear-gradient-78);}.cls-80{fill:url(#linear-gradient-79);}.cls-81{fill:url(#linear-gradient-80);}.cls-82{fill:url(#linear-gradient-81);}.cls-83{fill:url(#linear-gradient-82);}.cls-84{fill:url(#linear-gradient-83);}.cls-85{fill:url(#linear-gradient-84);}.cls-86{fill:url(#linear-gradient-85);}.cls-87{fill:url(#linear-gradient-86);}.cls-88{fill:url(#linear-gradient-87);}.cls-89{fill:url(#linear-gradient-88);}.cls-90{fill:url(#linear-gradient-89);}.cls-91{fill:url(#linear-gradient-90);}.cls-92{fill:url(#linear-gradient-91);}.cls-93{fill:url(#linear-gradient-92);}.cls-94{fill:url(#linear-gradient-93);}.cls-95{fill:url(#linear-gradient-94);}.cls-96{fill:url(#linear-gradient-95);}.cls-97{fill:url(#linear-gradient-96);}.cls-98{fill:url(#linear-gradient-97);}.cls-99{fill:url(#linear-gradient-98);}.cls-100{fill:url(#linear-gradient-99);}.cls-101{fill:url(#linear-gradient-100);}.cls-102{fill:url(#linear-gradient-101);}.cls-103{mix-blend-mode:screen;opacity:0.45;fill:url(#linear-gradient-102);}.cls-104{fill:url(#linear-gradient-103);}</style><linearGradient id="linear-gradient" x1="212.37" y1="39.67" x2="210.23" y2="178.68" gradientUnits="userSpaceOnUse"><stop offset="0" stop-color="#0584bc"/><stop offset="1" stop-color="#0584bc" stop-opacity="0"/></linearGradient><linearGradient id="linear-gradient-2" x1="211.1" y1="101.12" x2="215.38" y2="-33.37" gradientUnits="userSpaceOnUse"><stop offset="0" stop-color="#74d4ff"/><stop offset="1" stop-color="#fafdff"/></linearGradient><linearGradient id="linear-gradient-3" x1="193.1" y1="59.31" x2="113.27" y2="59.31" gradientUnits="userSpaceOnUse"><stop offset="0" stop-color="#0d8cc4"/><stop offset="1" stop-color="#7ecbee"/></linearGradient><linearGradient id="linear-gradient-4" x1="157.63" y1="54.08" x2="252.16" y2="54.08" xlink:href="#linear-gradient-3"/><linearGradient id="linear-gradient-5" x1="292.82" y1="116.06" x2="292.82" y2="21.9" xlink:href="#linear-gradient-3"/><linearGradient id="linear-gradient-6" x1="285.7" y1="59.82" x2="392.72" y2="59.46" xlink:href="#linear-gradient-3"/><linearGradient id="linear-gradient-7" x1="452.7" y1="73.38" x2="380.28" y2="67.97" xlink:href="#linear-gradient-3"/><linearGradient id="linear-gradient-8" x1="90.63" y1="111.26" x2="96.55" y2="73.65" xlink:href="#linear-gradient-3"/><linearGradient id="linear-gradient-9" x1="113.64" y1="65.38" x2="113.64" y2="16.04" xlink:href="#linear-gradient-3"/><linearGradient id="linear-gradient-10" x1="44.59" y1="63.67" x2="44.42" y2="33.45" xlink:href="#linear-gradient-3"/><linearGradient id="linear-gradient-11" x1="55.34" y1="48.48" x2="54.8" y2="35.87" xlink:href="#linear-gradient-3"/><linearGradient id="linear-gradient-12" x1="138.65" y1="119.36" x2="142.22" y2="61.44" gradientUnits="userSpaceOnUse"><stop offset="0" stop-color="#1f9ed6"/><stop offset="1" stop-color="#59ccff" stop-opacity="0.3"/></linearGradient><linearGradient id="linear-gradient-13" x1="126.43" y1="113.48" x2="135.04" y2="58.67" xlink:href="#linear-gradient-3"/><linearGradient id="linear-gradient-14" x1="113.71" y1="115.16" x2="124.85" y2="44.34" xlink:href="#linear-gradient-12"/><linearGradient id="linear-gradient-15" x1="105.54" y1="112.83" x2="115.07" y2="52.21" xlink:href="#linear-gradient-12"/><linearGradient id="linear-gradient-16" x1="107.27" y1="112.5" x2="116.71" y2="52.51" xlink:href="#linear-gradient-3"/><linearGradient id="linear-gradient-17" x1="108.5" y1="116.57" x2="92.46" y2="61.32" xlink:href="#linear-gradient-12"/><linearGradient id="linear-gradient-18" x1="103.37" y1="64.33" x2="103.37" y2="18.65" xlink:href="#linear-gradient-12"/><linearGradient id="linear-gradient-19" x1="114.77" y1="63.24" x2="109.54" y2="40.72" xlink:href="#linear-gradient-12"/><linearGradient id="linear-gradient-20" x1="114.24" y1="74.52" x2="121.54" y2="24.89" xlink:href="#linear-gradient-12"/><linearGradient id="linear-gradient-21" x1="80.62" y1="31.33" x2="112.93" y2="57.11" gradientUnits="userSpaceOnUse"><stop offset="0" stop-color="#faffff"/><stop offset="1" stop-color="#74d4ff" stop-opacity="0"/></linearGradient><linearGradient id="linear-gradient-22" x1="82.2" y1="133.78" x2="72.7" y2="61.31" xlink:href="#linear-gradient-12"/><linearGradient id="linear-gradient-23" x1="58.67" y1="117.79" x2="57.37" y2="43.76" xlink:href="#linear-gradient-12"/><linearGradient id="linear-gradient-24" x1="47.5" y1="54.82" x2="39.78" y2="103.29" xlink:href="#linear-gradient-21"/><linearGradient id="linear-gradient-25" x1="37.85" y1="115.23" x2="44.09" y2="50.44" xlink:href="#linear-gradient-12"/><linearGradient id="linear-gradient-26" x1="57.06" y1="106.07" x2="52.07" y2="64.81" xlink:href="#linear-gradient-12"/><linearGradient id="linear-gradient-27" x1="100.52" y1="1.21" x2="87.33" y2="44.69" xlink:href="#linear-gradient-12"/><linearGradient id="linear-gradient-28" x1="30.16" y1="35.29" x2="23.15" y2="86.73" xlink:href="#linear-gradient-21"/><linearGradient id="linear-gradient-29" x1="67.46" y1="37.69" x2="60.1" y2="83.91" xlink:href="#linear-gradient-21"/><linearGradient id="linear-gradient-30" x1="17.91" y1="127.17" x2="23.43" y2="48.04" xlink:href="#linear-gradient-3"/><linearGradient id="linear-gradient-31" x1="21.9" y1="99.78" x2="21.9" y2="72.45" xlink:href="#linear-gradient-12"/><linearGradient id="linear-gradient-32" x1="20.68" y1="108.74" x2="17.53" y2="89.67" xlink:href="#linear-gradient-3"/><linearGradient id="linear-gradient-33" x1="9.25" y1="97.64" x2="13.47" y2="81.48" xlink:href="#linear-gradient-12"/><linearGradient id="linear-gradient-34" x1="13.6" y1="85.49" x2="14.63" y2="52.91" xlink:href="#linear-gradient-2"/><linearGradient id="linear-gradient-35" x1="63.38" y1="66.98" x2="63.92" y2="49.88" xlink:href="#linear-gradient-2"/><linearGradient id="linear-gradient-36" x1="30.92" y1="53.68" x2="27.81" y2="94.76" gradientUnits="userSpaceOnUse"><stop offset="0" stop-color="#fafdff"/><stop offset="1" stop-color="#74d4ff" stop-opacity="0"/></linearGradient><linearGradient id="linear-gradient-37" x1="56.48" y1="84.11" x2="51.67" y2="52.38" xlink:href="#linear-gradient-12"/><linearGradient id="linear-gradient-38" x1="49.16" y1="32.89" x2="35.98" y2="79.7" xlink:href="#linear-gradient-36"/><linearGradient id="linear-gradient-39" x1="67.35" y1="120.65" x2="57.84" y2="55.19" xlink:href="#linear-gradient-3"/><linearGradient id="linear-gradient-40" x1="131.09" y1="22.81" x2="131.09" y2="14.06" xlink:href="#linear-gradient-3"/><linearGradient id="linear-gradient-41" x1="126.2" y1="62.34" x2="126.2" y2="16.1" xlink:href="#linear-gradient-2"/><linearGradient id="linear-gradient-42" x1="133.46" y1="79.69" x2="138.09" y2="58.66" xlink:href="#linear-gradient-3"/><linearGradient id="linear-gradient-43" x1="128.28" y1="69.26" x2="138.26" y2="36.23" xlink:href="#linear-gradient-12"/><linearGradient id="linear-gradient-44" x1="156.67" y1="124.32" x2="145.8" y2="50.9" xlink:href="#linear-gradient-3"/><linearGradient id="linear-gradient-45" x1="140.56" y1="99.3" x2="149.93" y2="68.3" xlink:href="#linear-gradient-12"/><linearGradient id="linear-gradient-46" x1="154.93" y1="132.6" x2="159.14" y2="66.48" gradientUnits="userSpaceOnUse"><stop offset="0" stop-color="#1f9ed6"/><stop offset="1" stop-color="#74d2fc"/></linearGradient><linearGradient id="linear-gradient-47" x1="152.16" y1="65.6" x2="147.53" y2="32.93" xlink:href="#linear-gradient-12"/><linearGradient id="linear-gradient-48" x1="160.82" y1="57.81" x2="156.93" y2="30.4" xlink:href="#linear-gradient-46"/><linearGradient id="linear-gradient-49" x1="170.06" y1="37.02" x2="120.16" y2="11.71" xlink:href="#linear-gradient-2"/><linearGradient id="linear-gradient-50" x1="154.06" y1="35.44" x2="156.92" y2="17.88" xlink:href="#linear-gradient-46"/><linearGradient id="linear-gradient-51" x1="129.04" y1="88.91" x2="138.3" y2="31.94" xlink:href="#linear-gradient-46"/><linearGradient id="linear-gradient-52" x1="169.19" y1="69.72" x2="169.01" y2="28.73" xlink:href="#linear-gradient-46"/><linearGradient id="linear-gradient-53" x1="174.48" y1="80.01" x2="178.58" y2="12.29" xlink:href="#linear-gradient-2"/><linearGradient id="linear-gradient-54" x1="160.4" y1="47.33" x2="162.33" y2="15.45" xlink:href="#linear-gradient-2"/><linearGradient id="linear-gradient-55" x1="182.41" y1="93.17" x2="187.28" y2="12.69" xlink:href="#linear-gradient-2"/><linearGradient id="linear-gradient-56" x1="187.14" y1="81.47" x2="180.84" y2="40.96" xlink:href="#linear-gradient-46"/><linearGradient id="linear-gradient-57" x1="183.48" y1="102.24" x2="180.84" y2="55.44" xlink:href="#linear-gradient-3"/><linearGradient id="linear-gradient-58" x1="183.61" y1="101.66" x2="184.69" y2="67.68" xlink:href="#linear-gradient-46"/><linearGradient id="linear-gradient-59" x1="178.32" y1="72.75" x2="231.42" y2="72.75" xlink:href="#linear-gradient-46"/><linearGradient id="linear-gradient-60" x1="200.82" y1="45.45" x2="197.38" y2="22.99" xlink:href="#linear-gradient-46"/><linearGradient id="linear-gradient-61" x1="209.19" y1="68.05" x2="206" y2="17.26" xlink:href="#linear-gradient-46"/><linearGradient id="linear-gradient-62" x1="209.33" y1="110.64" x2="207.95" y2="88.79" xlink:href="#linear-gradient-46"/><linearGradient id="linear-gradient-63" x1="240.38" y1="130.69" x2="235.28" y2="49.5" xlink:href="#linear-gradient-46"/><linearGradient id="linear-gradient-64" x1="260.54" y1="109.12" x2="256.64" y2="47.19" xlink:href="#linear-gradient-46"/><linearGradient id="linear-gradient-65" x1="265.68" y1="112.57" x2="237.88" y2="33.79" xlink:href="#linear-gradient-2"/><linearGradient id="linear-gradient-66" x1="229.95" y1="55.35" x2="227.99" y2="2.77" xlink:href="#linear-gradient-2"/><linearGradient id="linear-gradient-67" x1="246.61" y1="64.93" x2="238.76" y2="0.95" xlink:href="#linear-gradient-2"/><linearGradient id="linear-gradient-68" x1="259.88" y1="48.5" x2="261.31" y2="10.54" xlink:href="#linear-gradient-2"/><linearGradient id="linear-gradient-69" x1="124.76" y1="105.87" x2="132.12" y2="7.5" xlink:href="#linear-gradient-2"/><linearGradient id="linear-gradient-70" x1="290.19" y1="116.08" x2="288.29" y2="78.76" xlink:href="#linear-gradient-46"/><linearGradient id="linear-gradient-71" x1="287.64" y1="96.97" x2="284.73" y2="39.83" xlink:href="#linear-gradient-46"/><linearGradient id="linear-gradient-72" x1="272.9" y1="116.86" x2="271" y2="79.63" xlink:href="#linear-gradient-3"/><linearGradient id="linear-gradient-73" x1="309.48" y1="112.84" x2="307.93" y2="82.34" xlink:href="#linear-gradient-3"/><linearGradient id="linear-gradient-74" x1="273.94" y1="112.98" x2="268.95" y2="57.74" xlink:href="#linear-gradient-3"/><linearGradient id="linear-gradient-75" x1="305.81" y1="101.73" x2="303.55" y2="57.46" xlink:href="#linear-gradient-3"/><linearGradient id="linear-gradient-76" x1="298.23" y1="53.95" x2="293.96" y2="-2.6" xlink:href="#linear-gradient-2"/><linearGradient id="linear-gradient-77" x1="277.14" y1="39.81" x2="278.69" y2="4.05" xlink:href="#linear-gradient-2"/><linearGradient id="linear-gradient-78" x1="342.35" y1="70.8" x2="336.41" y2="17.1" xlink:href="#linear-gradient-2"/><linearGradient id="linear-gradient-79" x1="318.47" y1="60.56" x2="313.77" y2="18.09" xlink:href="#linear-gradient-2"/><linearGradient id="linear-gradient-80" x1="331.72" y1="87.17" x2="329.94" y2="61.98" xlink:href="#linear-gradient-46"/><linearGradient id="linear-gradient-81" x1="333.41" y1="121.53" x2="330.67" y2="82.92" xlink:href="#linear-gradient-46"/><linearGradient id="linear-gradient-82" x1="358.58" y1="81.6" x2="356.9" y2="57.95" xlink:href="#linear-gradient-46"/><linearGradient id="linear-gradient-83" x1="407.39" y1="78.03" x2="418.26" y2="2.6" xlink:href="#linear-gradient-2"/><linearGradient id="linear-gradient-84" x1="399.7" y1="106.1" x2="398.75" y2="83.64" xlink:href="#linear-gradient-46"/><linearGradient id="linear-gradient-85" x1="400.19" y1="105.14" x2="399.74" y2="90.97" xlink:href="#linear-gradient-3"/><linearGradient id="linear-gradient-86" x1="370.41" y1="113.66" x2="370.14" y2="75.16" xlink:href="#linear-gradient-46"/><linearGradient id="linear-gradient-87" x1="360.27" y1="93.43" x2="359.02" y2="72.23" xlink:href="#linear-gradient-3"/><linearGradient id="linear-gradient-88" x1="357.99" y1="115.21" x2="355.72" y2="76.46" xlink:href="#linear-gradient-3"/><linearGradient id="linear-gradient-89" x1="379.5" y1="89.81" x2="384.02" y2="26.63" xlink:href="#linear-gradient-2"/><linearGradient id="linear-gradient-90" x1="367.97" y1="83.97" x2="372.01" y2="23.64" xlink:href="#linear-gradient-2"/><linearGradient id="linear-gradient-91" x1="384.64" y1="110.11" x2="385.35" y2="92.88" xlink:href="#linear-gradient-3"/><linearGradient id="linear-gradient-92" x1="382.6" y1="105.52" x2="379.3" y2="59.36" xlink:href="#linear-gradient-2"/><linearGradient id="linear-gradient-93" x1="6.59" y1="97.23" x2="6.67" y2="94.88" xlink:href="#linear-gradient-2"/><linearGradient id="linear-gradient-94" x1="24.05" y1="97.39" x2="24.11" y2="95.46" xlink:href="#linear-gradient-2"/><linearGradient id="linear-gradient-95" x1="58.88" y1="102.92" x2="59.01" y2="98.89" xlink:href="#linear-gradient-2"/><linearGradient id="linear-gradient-96" x1="36.79" y1="102.76" x2="36.84" y2="101.38" xlink:href="#linear-gradient-2"/><linearGradient id="linear-gradient-97" x1="133.49" y1="103.95" x2="133.64" y2="99.03" xlink:href="#linear-gradient-2"/><linearGradient id="linear-gradient-98" x1="189.43" y1="103.32" x2="189.53" y2="100.22" xlink:href="#linear-gradient-2"/><linearGradient id="linear-gradient-99" x1="295.58" y1="105.35" x2="295.8" y2="98.46" xlink:href="#linear-gradient-2"/><linearGradient id="linear-gradient-100" x1="390.13" y1="101.45" x2="390.21" y2="98.91" xlink:href="#linear-gradient-2"/><linearGradient id="linear-gradient-101" x1="412.26" y1="102.61" x2="412.36" y2="99.44" xlink:href="#linear-gradient-2"/><linearGradient id="linear-gradient-102" x1="211.22" y1="108.73" x2="213.71" y2="7.14" gradientUnits="userSpaceOnUse"><stop offset="0" stop-color="#74d4ff" stop-opacity="0"/><stop offset="1" stop-color="#fafdff"/></linearGradient><linearGradient id="linear-gradient-103" x1="211.44" y1="113.56" x2="211.44" y2="79.63" xlink:href="#linear-gradient"/></defs><g class="cls-1"><g id="Layer_2" data-name="Layer 2"><g id="OBJECTS"><path class="cls-2" d="M422.88,102.31l-17.47-5.5s-7.1-3.75-13.57-3.75H377c-12.22,0-14,0-14,0L349,91.48s-17.85-.62-26.37,1h-.09c-2.34-.12-49.45-2.64-54.85-3l-.31,0c-3.57-.27-18.89,0-18.89,0s-29.94,1.6-34,1.69c-.68,0-1.64,0-2.78,0-2.94,0-7.08,0-10.77-.06L192.92,91s-19.86.22-20.14.27H162.54c-4.37,0-11.57-1.21-17.31-1.46-.7,0-1.38-.06-2-.06-3,0-7.47.3-11.11.59s-6.36.57-6.36.57l-3,.15-8,.45-4.22.29c-1.89.13-3.69.27-5.22.42l-.25,0s-19-.59-26.87-.62H77.7c-2.42,0-5.5,0-8.57.13-5,.12-9.94.29-12,.37l-1,0-12.32.1h-.06l-4.05,0c-4.07,0-7.53.07-8.43.1L32,95.29l2.45,1.78H0l6.24,12.21L8.91,111,15,133.35a22.48,22.48,0,0,1,2.26,1.06l2.1,12.83,8.55,9.09,12,1.07,6.12,1,3.33-3.51.27.12c.35.16,1,.44,1.69.72l.17.07a13.92,13.92,0,0,0,2.23.7c1.43.24,3.65-1.4,3.91-1.59l0,0a11.26,11.26,0,0,0,2.85,2c1,.27,18.8,2.14,18.8,2.14l1.28,1.16,6.2,2.32s2.77,13.63,2.94,14.52c.12.6,4.87.19,8-.13l2.64-.31,22.69-.2,6,.92,3.37,2.71,9.77-1.38,12.12-1.16,9.82.87,7.88,2.37,13.13.14,4.19-2.05s4.9,2.06,5.7,2.32,8.29-.08,10.16,0a8.24,8.24,0,0,0,4.08-1.42l8.49,9.53,6.23-.8,4.73,4,3.47-.36,2.5,2.14,22.9-6.95,8-1.78s6-1.52,7.48-1.7,1.43-5.43,1.43-5.43l5.61-1.78,8.5-1.2,44.56,2.35,5.74-1.93,5.45-15.62,26.61-6.85L386,148.59l7.71-4.38a47.84,47.84,0,0,0,6.1-.41,12.24,12.24,0,0,0,1.47-.3,12.11,12.11,0,0,0,1.33-.5c3.27-1.39,9.39-4.79,10.16-5.56s2.77-15.59,2.86-24.23a46.48,46.48,0,0,0,4-6C421.58,103.77,423,104.36,422.88,102.31Z"/><path class="cls-3" d="M422.29,102.39h-19.6v-1.25H377c-12.22,0-14,0-14,0L349,102.72s-17.85.62-26.37-1h-.09c-2.34.12-49.45,2.64-54.85,3l-.31,0c-3.57.27-18.89,0-18.89,0s-29.94-1.6-34-1.69c-.68,0-1.64,0-2.78,0-2.94,0-7.08,0-10.77.06l-7.93.06s-19.86-.22-20.14-.27H162.54c-4.37,0-11.57,1.21-17.31,1.46-.7,0-1.38.06-2,.06-3,0-7.47-.3-11.11-.59s-6.36-.57-6.36-.57l-3-.15-8-.45-4.22-.29c-1.89-.13-3.69-.27-5.22-.42l-.25,0s-19,.59-26.87.62H77.7c-2.42,0-5.5,0-8.57-.13-5-.12-9.94-.29-12-.37l-1,0-12.32-.1h-.06l-4.05,0c-4.07,0-7.53-.07-8.43-.1L32,98.91l2.45-1.78H0L6.24,84.92l2.67-1.69L15,60.85a22.48,22.48,0,0,0,2.26-1.06L19.34,47l8.55-9.09,12-1.07,6.12-1,3.33,3.51.27-.12c.35-.16,1-.44,1.69-.72l.17-.07a13.92,13.92,0,0,1,2.23-.7c1.43-.24,3.65,1.4,3.91,1.59l0,0a11.26,11.26,0,0,1,2.85-2c1-.27,18.8-2.14,18.8-2.14l1.28-1.15,6.2-2.33s2.77-13.63,2.94-14.52c.12-.6,4.87-.19,8,.13l2.64.31,22.69.2,6-.92,3.37-2.71,9.77,1.38,12.12,1.16,9.82-.87L172,13.51l13.13-.14,4.19,2.05s4.9-2.06,5.7-2.32,8.29.08,10.16,0a8.24,8.24,0,0,1,4.08,1.42L217.7,5l6.23.8,4.73-4,3.47.36L234.63,0l22.9,7,8,1.78s6,1.52,7.48,1.7,1.43,5.43,1.43,5.43l5.61,1.78,8.5,1.2,44.56-2.34,5.74,1.93L344.32,34l26.61-3.15L386,35.61,393.69,38a47.84,47.84,0,0,1,6.1.41,12.24,12.24,0,0,1,1.47.3,12.11,12.11,0,0,1,1.33.5c3.27,1.39,9.39,4.79,10.16,5.56S414.27,75,414.27,75a129,129,0,0,1,1.34,16.57,46.48,46.48,0,0,1,4,6C421.58,101.05,422.38,100.34,422.29,102.39Z"/><path class="cls-4" d="M132.37,14.2l10.34,1.42,11.66,1.12s6.46-.51,9.7-.86l-6.45,10.59,7.61,7.84-7,19.54,5.43-3.38L160.83,59l8.08,14.85S165,88.7,165,89.06c.28-.41,6.06-9.19,6.06-9.19l3.66-3S173.64,103,173.36,103H163.12c-3.33,0-8.3.7-13,1.15-1.48.13-4.3.31-4.3.31l1.59-14.62-3.56-28.16-6.42,11.65-6.36-11.65,1.11-5.17s-6.87-7.3-6.87-7.42,4.16-27.8,4.52-28.75"/><path class="cls-5" d="M216.78,11.85,217.7,5c-2.2,2.59-8.49,9.53-8.49,9.53l-6.68,1.37-1.78,5.7L193,18.07,197,36.2l-6.09,21.58-1.57,18.33,6.8-16.85,5.46,27-.15,16.93s7.83-.06,10.77-.06l2.69-30.77,4.39-5.82s3.33-22.1,3.45-23.65S216.78,11.85,216.78,11.85Z"/><path class="cls-6" d="M323.07,101.8c-2.34.12-49.45,2.64-54.85,3l-5.66-16.64.27-67.55,2.72-11.88,8.06,1.73L275,15.89l6.33-1.42,7.2,4.37L290,22.13l8.11,3.12c.17.27,1.33,3.92,1.33,3.92s11.05,5.52,11.05,6.24-.09,5.08-.09,5.08,5,9.44,5,10.6.45,16.57.45,16.57,2.67,8.29,2.67,8.83-.26,10-.26,10Z"/><path class="cls-7" d="M377.59,101.17H363.52L349,102.72l-.4-31.31-3.11,6.39-1.28,25s-1.31-23.45-1.19-25,1.19-19.6,1.19-19.6l-5.29-39.76-5.74-1.93,5.74,1.93,6,15.64,25.66-3.23-2.28,18.32-4.64,5.7L367,68.76l7.6-12.47s.36,20.67.24,22.22-1.31-7.73-1.31-7.73-3.92,7.13-3.68,7.84C370,79.17,375.16,94.11,377.59,101.17Z"/><path class="cls-8" d="M422.87,102.42H402.69v-1.25H392.42c-.08-3.85-.38-10.69-.38-10.69L390.26,82,386,87.07l4.72-20.48,4.1-18.23-3.19-11L386,35.61,394.27,38a47.84,47.84,0,0,1,6.1.41c.15,2.85.31,5.74.31,5.92,0,.35,2.41,27.68,2.41,27.68l.08-32.8c.92.39,2.08,1,3.28,1.56a50.78,50.78,0,0,1,6.88,4,2.13,2.13,0,0,1,.29.88c.74,3.7,1.23,29.39,1.23,29.39a129,129,0,0,1,1.34,16.57,46.48,46.48,0,0,1,4,6C422.16,101.08,423,100.37,422.87,102.42Z"/><path class="cls-9" d="M105.64,102h0l-4.4.13-2.35.07-1.46,0h-.1L87,102.47l-1.89,0-3.29,0-3.33,0C79.7,94.68,83.1,74,83.1,74l1.42,4.28,13.64,3.21,4.9,16.12Z"/><path class="cls-10" d="M129,16.92l-6.42,2.83-2,3L116,19.34s-.42,6.71-.72,8.14-1.54,8-1.54,8l-3.33-6.72-4,22.48-1.27-29.66-1.43-2.08-3.56,23.73s-2-23.8-2-25.83l2.64.31,22.36.18Z"/><path class="cls-11" d="M49.62,39.31l-5.78,4.41L42.34,50l-.41-6.12s1.34-5.88,1.07-6-3.52-.93-3.73-1c.44,0,7-1.07,7-1.07Z"/><path class="cls-12" d="M58,39.25s-3.26,5.61-3.39,5.61-2.77-6.52-2.77-6.52a13.92,13.92,0,0,1,2.23-.7C55.5,37.4,57.72,39,58,39.23Z"/><path class="cls-13" d="M147.4,89.79l-1.59,14.62c-.7,0-1.38.06-2,.06-3,0-7.47-.3-11.11-.59,0,0,2.26-15.76,2.38-16.53s2.37-14.07,2.37-14.07l6.42-11.65Z"/><path class="cls-14" d="M137.42,73.28l-4.75,30.6c-3.56-.29-6.36-.57-6.36-.57l-3-.15,7.75-41.53Z"/><path class="cls-15" d="M125.3,49l-2,54.12-8-.45-1.7-36.09Z"/><polygon class="cls-16" points="112 102.49 109.74 55.34 105.64 101.97 112 102.49"/><polygon class="cls-17" points="113.63 66.63 109.74 55.34 112 102.49 115.33 102.72 113.63 66.63"/><path class="cls-18" d="M83.1,74l17.14-30.8L98.16,81.48s-13.56-3-13.64-3.21Z"/><polygon class="cls-19" points="106.5 51.2 105.23 21.55 103.8 19.46 100.24 43.19 106.5 51.2"/><polygon class="cls-20" points="109.74 55.34 113.78 35.45 110.45 28.73 106.5 51.2 109.74 55.34"/><polygon class="cls-21" points="113.78 35.45 125.3 49.05 113.63 66.63 109.74 55.34 113.78 35.45"/><polygon class="cls-22" points="100.24 43.19 87.04 31.73 80.84 34.06 79.56 35.21 100.24 43.19"/><path class="cls-23" d="M83.1,74l-.15.9-.08.49-.32,2-.13.81-.07.43-.15.91-3.35,20.57-.15.91c-.09.57-.18,1.11-.26,1.6v0H69.37v-.15l.71-13.23L72,54.3Z"/><path class="cls-24" d="M72,54.3,70.09,89.21l-.71,13.23c-5-.12-9.94-.29-12-.37l-1,0L44,101.94l4.63-42.65L57,96.54,55.58,74l-.42-6.68Z"/><polygon class="cls-25" points="48.61 59.3 43.98 101.94 42.08 63.77 48.61 59.3"/><polygon class="cls-26" points="43.98 101.94 43.98 101.97 43.92 101.94 34.74 97.14 42.08 63.77 43.98 101.94"/><polygon class="cls-27" points="48.61 59.29 55.16 67.31 56.99 96.54 48.61 59.29"/><polygon class="cls-28" points="71.96 54.3 79.56 35.21 100.24 43.19 71.96 54.3"/><polygon class="cls-29" points="19.59 46.97 17.49 59.8 26.65 42.3 24.06 54.95 24.84 69.06 32.85 37.46 36.06 37.18 34.74 68.2 39.27 36.88 28.14 37.88 19.59 46.97"/><path class="cls-30" d="M54.61,44.86s1,18.35,1.22,18,6.11-23.48,6.11-23.48v14l3.39-16.61L72,36V54.3l7.6-19.09L60.85,37.16a22.75,22.75,0,0,0-3,2.13Z"/><polygon class="cls-31" points="34.74 97.14 42.08 63.78 42.33 49.91 41.93 43.88 31.77 95.2 34.74 68.2 25.74 84.45 21.44 97.14 16.09 97.14 18.05 87.18 8.6 91.46 0.25 97.14 34.74 97.14"/><polygon class="cls-32" points="18.05 87.18 24.84 69.06 25.74 84.45 21.44 97.14 18.05 87.18"/><polygon class="cls-33" points="21.44 97.14 16.09 97.14 18.05 87.18 21.44 97.14"/><polygon class="cls-34" points="6.49 84.93 8.6 91.46 18.05 87.18 9.16 83.24 6.49 84.93"/><polygon class="cls-35" points="15.23 60.87 18.05 87.18 9.16 83.24 15.23 60.87"/><polygon class="cls-36" points="55.18 67.53 55.83 62.81 71.96 54.3 55.18 67.53"/><polygon class="cls-37" points="24.84 69.06 34.74 68.2 25.74 84.45 24.84 69.06"/><polygon class="cls-38" points="48.68 59.57 54.62 44.86 55.83 62.81 55.16 67.31 48.68 59.57"/><polygon class="cls-39" points="43.84 43.73 42.33 49.91 42.08 63.78 49.62 39.31 43.84 43.73"/><path class="cls-40" d="M70.09,89.21l-.71,13.23c-5-.12-9.94-.29-12-.37L57,96.54,55.58,74Z"/><line class="cls-41" x1="132.36" y1="14.21" x2="129.82" y2="20.29"/><polygon class="cls-42" points="129.82 20 128.99 16.93 122.57 19.75 125.3 49.05 129.82 20"/><polygon class="cls-43" points="132.17 56.46 143.84 61.63 137.42 73.28 131.06 61.63 132.17 56.46"/><polygon class="cls-44" points="125.3 49.05 129.82 20.3 143.84 61.63 132.17 56.46 125.3 49.05"/><polygon class="cls-45" points="147.4 89.8 161.43 103 145.81 104.42 147.4 89.8"/><polygon class="cls-46" points="143.84 61.63 160.83 59.02 147.4 89.8 143.84 61.63"/><polygon class="cls-47" points="168.91 73.88 161.43 103 147.4 89.8 160.83 59.02 168.91 73.88"/><polygon class="cls-48" points="143.84 61.63 148.48 25.4 158.25 53.85 143.84 61.63"/><polygon class="cls-49" points="148.48 25.4 157.62 26.48 165.23 34.31 158.25 53.85 148.48 25.4"/><polygon class="cls-50" points="148.88 25.45 129.82 20.3 132.36 14.21 148.88 25.45"/><path class="cls-51" d="M148.88,25.45c-.4-.05,5.49-8.71,5.49-8.71l9.7-.86-6.45,10.59Z"/><polygon class="cls-52" points="143.84 61.63 148.48 25.4 129.82 20.3 143.84 61.63"/><path class="cls-53" d="M164.07,15.88l1.16,18.43s8.76,18,8.76,17.41-2-38.21-2-38.21Z"/><polygon class="cls-54" points="185.08 13.37 173.99 51.72 171.95 13.52 185.08 13.37"/><polygon class="cls-55" points="165.23 34.31 164.07 15.88 157.62 26.48 165.23 34.31"/><polygon class="cls-56" points="185.08 13.37 185.08 59.74 189.27 15.42 185.08 13.37"/><polygon class="cls-57" points="173.99 51.72 185.08 59.02 185.08 13.37 173.99 51.72"/><polygon class="cls-58" points="173.96 51.2 174.73 76.84 189.32 76.11 185.08 59.02 173.96 51.2"/><polygon class="cls-59" points="189.32 76.11 193.77 103.18 173.36 102.95 174.73 76.84 189.32 76.11"/><polygon class="cls-60" points="201.58 86.23 214.89 72.33 196.12 59.27 201.58 86.23"/><polygon class="cls-61" points="196.98 36.2 200.75 21.59 193.03 18.07 196.98 36.2"/><polygon class="cls-62" points="202.53 15.89 205.51 51.2 209.21 14.52 202.53 15.89"/><polygon class="cls-63" points="205.51 103.18 210.38 87.54 212.2 103.11 205.51 103.18"/><polygon class="cls-64" points="251.6 44.41 239.13 65.62 231.81 103.92 222.02 103.43 233.25 61.63 251.6 44.41"/><polygon class="cls-65" points="251.6 44.41 262.56 88.17 262.56 64.02 251.6 44.41"/><path class="cls-66" d="M239.13,65.62s23.43,22.9,23.43,22.54-11-43.75-11-43.75Z"/><polygon class="cls-67" points="223.93 5.79 229.5 40.25 232.13 2.14 228.66 1.78 223.93 5.79"/><path class="cls-68" d="M234.63,0s5.45,41.8,5.45,41.2S243,2.53,243,2.53Z"/><polygon class="cls-69" points="257.53 6.95 256.48 28.02 262.83 20.61 265.55 8.73 257.53 6.95"/><path class="cls-70" d="M125.3,49l6.87,7.42s-9,47.09-8.86,46.7S125.3,49,125.3,49Z"/><polygon class="cls-71" points="301.74 103.17 293.55 77.8 279.52 72.75 277.38 104.28 301.74 103.17"/><polygon class="cls-72" points="293.55 77.8 289.97 50.49 285.23 29.92 280.95 37.05 279.52 72.75 293.55 77.8"/><polygon class="cls-73" points="279.52 72.75 262.56 88.17 268.22 104.81 277.38 104.28 279.52 72.75"/><polygon class="cls-74" points="293.55 77.8 318.26 86.47 323.07 101.81 301.74 103.17 293.55 77.8"/><polygon class="cls-75" points="262.56 64.02 268.95 39.42 271.04 80.46 275.01 76.85 276.56 48.33 279.49 73.29 262.56 88.17 262.56 64.02"/><polygon class="cls-76" points="289.97 50.49 318.26 86.47 293.55 77.8 289.97 50.49"/><polygon class="cls-77" points="299.45 29.18 300.35 53.86 292.82 23.21 298.12 25.25 299.45 29.18"/><polygon class="cls-78" points="281.37 14.47 276.56 38.53 275.04 15.89 281.37 14.47"/><path class="cls-79" d="M333.13,16.5s11.1,42.21,11,41.69-5.29-39.76-5.29-39.76Z"/><path class="cls-80" d="M310.41,40.49c0-.53,0-22.79,0-22.79l9.09-.48-4.1,33.87Z"/><polygon class="cls-81" points="318.52 76.5 344.16 58.2 315.85 67.67 318.52 76.5"/><path class="cls-82" d="M318.26,86.47,343,77.79,344.16,103a83.79,83.79,0,0,1-21.09-1.18Z"/><polygon class="cls-83" points="366.97 68.77 348.56 71.41 363.64 54.87 366.97 68.77"/><path class="cls-84" d="M413.62,45.67l-.91,39.1-4.19-11-2.07-33a50.78,50.78,0,0,1,6.88,4A2.13,2.13,0,0,1,413.62,45.67Z"/><polygon class="cls-85" points="390.34 82.37 407.46 92 392.04 90.48 390.34 82.37"/><polygon class="cls-86" points="407.46 92 402.69 101.17 392.42 101.17 392.04 90.48 407.46 92"/><polygon class="cls-87" points="363.05 101.17 364.59 86.06 369.82 78.63 377.59 101.17 363.05 101.17"/><polygon class="cls-88" points="369.82 78.63 366.97 68.77 348.56 71.41 364.59 86.06 369.82 78.63"/><polygon class="cls-89" points="363.05 101.17 364.59 86.06 348.56 71.41 348.94 102.72 363.05 101.17"/><polygon class="cls-90" points="385.98 35.62 384.56 74.02 382.42 64.55 379.59 33.61 385.98 35.62"/><polygon class="cls-91" points="368.28 49.16 371.78 57.06 372.98 31.54 370.56 30.84 368.28 49.16"/><polygon class="cls-92" points="385.98 87.07 377.59 101.17 392.42 101.17 392.04 90.48 385.98 87.07"/><polygon class="cls-93" points="385.98 87.07 382.06 72.66 377.59 101.17 385.98 87.07"/><polygon class="cls-94" points="0 97.13 5.89 95.43 13.19 97.14 0 97.13"/><polygon class="cls-95" points="13.37 97.14 15.11 96.09 27.36 96.9 29.41 96.09 34.74 97.14 13.37 97.14"/><polygon class="cls-96" points="43.98 101.94 48.61 99.54 56.63 101.03 61.03 100.19 70.09 100.37 75.17 102.59 42.61 102.59 43.98 101.94"/><polygon class="cls-97" points="42.61 102.59 29.63 102.59 31.19 101.79 43.98 101.94 42.61 102.59"/><polygon class="cls-98" points="105.64 101.97 111.88 99.9 123.31 99.9 129.29 103.7 133.03 101.03 141.7 100.79 145.81 104.42 153.62 101.8 161.43 103 145.81 104.42 129.17 104.05 105.64 101.97"/><polygon class="cls-99" points="173.36 102.95 176.75 100.97 193.77 101.5 198.02 102.95 201.45 101.38 204.08 101.44 205.51 103.18 173.36 102.95"/><polygon class="cls-100" points="268.22 104.81 272.28 102.15 282.17 100.73 291.08 101.8 294.47 103.5 304.12 103.17 308.31 100.73 314.43 100.73 323.07 101.81 304.12 103.62 268.22 104.81"/><polygon class="cls-101" points="377.59 101.17 382.79 99.66 389.19 100.42 391.59 99.66 394.27 99.66 397.74 100.86 401 100.42 402.69 101.17 377.59 101.17"/><polygon class="cls-102" points="401.66 102.42 402.69 101.17 408.97 100.1 415.3 101.93 418.5 101.27 420.82 101.27 422.87 102.42 401.66 102.42"/><path class="cls-103" d="M420.2,97.6a46.48,46.48,0,0,0-4-6,129,129,0,0,0-1.34-16.57s-.49-25.69-1.23-29.39a2.13,2.13,0,0,0-.29-.88,50.78,50.78,0,0,0-6.88-4c-1.2-.61-2.36-1.17-3.28-1.56v.23l-.58-.26a12.11,12.11,0,0,0-1.33-.5c-.27-.07-.57-.14-.88-.2v-.07a33,33,0,0,0-3.41-.32c-1.13-.08-2.15-.1-2.74-.11L386,35.61l-6.39-2h0l-8.66-2.72-7.61-2L344.9,34.07l-6-15.64-5.74-1.93-44.56,2.34-7.2-4.37L275,15.89,274.29,13a6.46,6.46,0,0,0-.51-1.92l-.17-.66-8.06-1.73-8-1.78L234.63,0l-2.5,2.14-3.47-.36-4.73,4L217.7,5l-8.49,9.53a8.24,8.24,0,0,0-4.08-1.42c-1.87.08-9.36-.27-10.16,0s-5.7,2.32-5.7,2.32l-4.19-2.05L172,13.51l-7.88,2.37-9.71.86-11.65-1.12L132.37,14.2v0h0L129,16.92l-6,.92-22.37-.2-2.38-.28v0l-.58-.07c-3.1-.32-7.85-.73-8-.13-.17.89-2.94,14.52-2.94,14.52l-6.2,2.33L79.31,35.2s-5.76.6-10.91,1.18l-7.55.78-.25.16-.09,0a9.69,9.69,0,0,0-2.66,1.79c-.53-.39-2.47-1.71-3.78-1.49l-.22,0h-.12a13.92,13.92,0,0,0-2.23.7l-.17.07c-.71.28-1.34.56-1.69.72l-.1,0-3.25-3.41-.2,0L46,35.79l-6.12,1-12,1.07L19.34,47l-2.1,12.83A22.48,22.48,0,0,1,15,60.85L8.91,83.23,6.24,84.92,0,97.13H34.48L32,98.91l-.85,2.88-1.56.8H78.44v0h0v0l3.33,0,3.29,0,1.89,0,10.37-.26h.1l1.46,0,2.35-.07c2.15,0,3.7-.1,4.22-.12,1.25.12,2.69.24,4.2.35L129.17,104l8.31.19.48,0c2.12.13,4.18.21,5.82.21.65,0,1.33,0,2-.06,0,0,2.82-.18,4.3-.31,1.7-.16,3.42-.35,5.09-.53l6.14-.56c.63,0,1.23-.06,1.78-.06h10.24l3.24,0,16.32.2,6.57,0h2.62l3.4,0,0,0h.05v0l6.69-.08v0c.88,0,1.63,0,2.19,0,1.08,0,4,.15,7.62.33h0l9.79.49h0c8.42.43,16.63.87,16.63.87s15.32.27,18.89,0l.31,0,.56,0,0,.07,35.9-1.18,18.8-1.8q1,.17,2,.3a83.74,83.74,0,0,0,19.2.86v-.16c2.87,0,4.79-.1,4.79-.1l14.57-1.55h14.07v0h0v0h25.1l-1,1.24h21.21C423,100.37,422.16,101.08,420.2,97.6Zm-381,4.29h.46l4.05,0h.25Zm90,1.71.27,0-.11.08Zm165.34-.1h0l7.27-.34,2.67-.17-.29.17Z"/><path class="cls-104" d="M420.2,97.6a46.48,46.48,0,0,0-4-6,129,129,0,0,0-1.34-16.57s-.49-25.69-1.23-29.39a2.13,2.13,0,0,0-.29-.88,50.78,50.78,0,0,0-6.88-4c-1.2-.61-2.36-1.17-3.28-1.56v.23l-.58-.26a12.11,12.11,0,0,0-1.33-.5c-.27-.07-.57-.14-.88-.2v-.07a33,33,0,0,0-3.41-.32c-1.13-.08-2.15-.1-2.74-.11L386,35.61l-6.39-2h0l-8.66-2.72-7.61-2L344.9,34.07l-6-15.64-5.74-1.93-44.56,2.34-7.2-4.37L275,15.89,274.29,13a6.46,6.46,0,0,0-.51-1.92l-.17-.66-8.06-1.73-8-1.78L234.63,0l-2.5,2.14-3.47-.36-4.73,4L217.7,5l-8.49,9.53a8.24,8.24,0,0,0-4.08-1.42c-1.87.08-9.36-.27-10.16,0s-5.7,2.32-5.7,2.32l-4.19-2.05L172,13.51l-7.88,2.37-9.71.86-11.65-1.12L132.37,14.2v0h0L129,16.92l-6,.92-22.37-.2-2.38-.28v0l-.58-.07c-3.1-.32-7.85-.73-8-.13-.17.89-2.94,14.52-2.94,14.52l-6.2,2.33L79.31,35.2s-5.76.6-10.91,1.18l-7.55.78-.25.16-.09,0a9.69,9.69,0,0,0-2.66,1.79c-.53-.39-2.47-1.71-3.78-1.49l-.22,0h-.12a13.92,13.92,0,0,0-2.23.7l-.17.07c-.71.28-1.34.56-1.69.72l-.1,0-3.25-3.41-.2,0L46,35.79l-6.12,1-12,1.07L19.34,47l-2.1,12.83A22.48,22.48,0,0,1,15,60.85L8.91,83.23,6.24,84.92,0,97.13H34.48L32,98.91l-.85,2.88-1.56.8H78.44v0h0v0l3.33,0,3.29,0,1.89,0,10.37-.26h.1l1.46,0,2.35-.07c2.15,0,3.7-.1,4.22-.12,1.25.12,2.69.24,4.2.35L129.17,104l8.31.19.48,0c2.12.13,4.18.21,5.82.21.65,0,1.33,0,2-.06,0,0,2.82-.18,4.3-.31,1.7-.16,3.42-.35,5.09-.53l6.14-.56c.63,0,1.23-.06,1.78-.06h10.24l3.24,0,16.32.2,6.57,0h2.62l3.4,0,0,0h.05v0l6.69-.08v0c.88,0,1.63,0,2.19,0,1.08,0,4,.15,7.62.33h0l9.79.49h0c8.42.43,16.63.87,16.63.87s15.32.27,18.89,0l.31,0,.56,0,0,.07,35.9-1.18,18.8-1.8q1,.17,2,.3a83.74,83.74,0,0,0,19.2.86v-.16c2.87,0,4.79-.1,4.79-.1l14.57-1.55h14.07v0h0v0h25.1l-1,1.24h21.21C423,100.37,422.16,101.08,420.2,97.6Zm-381,4.29h.46l4.05,0h.25Zm90,1.71.27,0-.11.08Zm165.34-.1h0l7.27-.34,2.67-.17-.29.17Z"/></g></g></g></svg>